<?xml version="1.0" ?><svg enable-background="new 0 0 64 64" id="Layer_1" version="1.1" viewBox="0 0 64 64" xml:space="preserve" xmlns="http://www.w3.org/2000/svg" xmlns:xlink="http://www.w3.org/1999/xlink"><g><path d="M63.8,31.5L53.4,9.9c-0.5-1-1.6-1.7-2.9-1.7h-7.6h-2.4H2.8c-1.6,0-2.9,1.3-2.9,2.9v30.5v2.4v9.8   c0,1.2,0.9,2.1,2.1,2.1h38.4v0h21.4c1.2,0,2.2-1,2.2-2.2v-9.7v-2.4v-9C64.1,32.2,64,31.8,63.8,31.5z M43,10.7h7.5   c0.3,0,0.6,0.2,0.7,0.3l10.5,21.6c0,0,0,0,0,0.1v8.8H43V10.7z M2.4,11c0-0.2,0.2-0.4,0.4-0.4h37.5v30.7H2.4V11z M40.3,53.3H2.4   v-9.3h37.9V53.3z M61.6,53.3H43v-9.3h18.6V53.3z" fill="#20293B"/><rect fill="#20293B" height="24.8" width="31.5" x="5.6" y="13.7"/><line fill="none" stroke="#20293B" stroke-miterlimit="10" stroke-width="1.5" x1="25.4" x2="34.9" y1="49.9" y2="49.9"/><line fill="none" stroke="#20293B" stroke-miterlimit="10" stroke-width="1.5" x1="5.6" x2="5.6" y1="43.9" y2="55.8"/><line fill="none" stroke="#20293B" stroke-miterlimit="10" stroke-width="1.5" x1="9.1" x2="9.1" y1="43.9" y2="55.8"/></g></svg>